<svg width="207" height="15" viewBox="0 0 207 15" fill="none" xmlns="http://www.w3.org/2000/svg">
<path d="M1.7 14.84L0.34 14.06L9.32 0.7L10.7 1.52L1.7 14.84ZM16.7 14.84L15.34 14.06L24.32 0.7L25.7 1.52L16.7 14.84ZM35.28 14.22C34.92 14.22 34.6133 14.1 34.36 13.86C34.12 13.6067 34 13.3067 34 12.96C34 12.6267 34.12 12.3333 34.36 12.08C34.6133 11.8267 34.92 11.7 35.28 11.7C35.6133 11.7 35.9 11.8267 36.14 12.08C36.3933 12.3333 36.52 12.6267 36.52 12.96C36.52 13.3067 36.3933 13.6067 36.14 13.86C35.9 14.1 35.6133 14.22 35.28 14.22ZM47.22 6.12H44.26V4.86H47.22V4.1C47.22 3.31333 47.4333 2.66 47.86 2.14C48.3 1.62 48.9 1.23333 49.66 0.98C50.42 0.713333 51.2933 0.58 52.28 0.58C53.1333 0.58 53.9333 0.686666 54.68 0.899999C55.44 1.1 56.0667 1.41333 56.56 1.84L55.66 2.94L55.46 3.16L55.36 3.08C55.3733 2.94667 55.3533 2.84 55.3 2.76C55.2467 2.66667 55.1333 2.55333 54.96 2.42C54.5733 2.20667 54.18 2.06 53.78 1.98C53.38 1.88667 52.9 1.84 52.34 1.84C51.7 1.84 51.1133 1.91333 50.58 2.06C50.0467 2.20667 49.62 2.44667 49.3 2.78C48.98 3.11333 48.82 3.55333 48.82 4.1V4.86H53.8V6.12H48.82V14H47.22V6.12ZM65.48 14.16C64.2133 14.16 63.1 13.96 62.14 13.56C61.1933 13.16 60.4533 12.6067 59.92 11.9C59.4 11.1933 59.14 10.3667 59.14 9.42C59.14 8.47333 59.4 7.64667 59.92 6.94C60.4533 6.22 61.1933 5.66 62.14 5.26C63.1 4.86 64.2133 4.66 65.48 4.66C66.7333 4.66 67.8267 4.86 68.76 5.26C69.6933 5.66 70.42 6.22 70.94 6.94C71.46 7.64667 71.72 8.47333 71.72 9.42C71.72 10.3667 71.46 11.1933 70.94 11.9C70.42 12.6067 69.6933 13.16 68.76 13.56C67.8267 13.96 66.7333 14.16 65.48 14.16ZM65.48 12.84C66.3467 12.84 67.12 12.7 67.8 12.42C68.4933 12.14 69.0333 11.7467 69.42 11.24C69.82 10.72 70.02 10.1067 70.02 9.4C70.02 8.69333 69.82 8.08667 69.42 7.58C69.0333 7.06 68.4933 6.66667 67.8 6.4C67.12 6.12 66.3467 5.98 65.48 5.98C64.6 5.98 63.8067 6.12 63.1 6.4C62.4067 6.66667 61.8533 7.06 61.44 7.58C61.04 8.08667 60.84 8.69333 60.84 9.4C60.84 10.1067 61.04 10.72 61.44 11.24C61.8533 11.7467 62.4067 12.14 63.1 12.42C63.8067 12.7 64.6 12.84 65.48 12.84ZM76.7 14.02L73.52 4.86H75.06L77.64 12.16L80.06 5.72H81.14L83.96 12.22C84.3067 11.0867 84.5867 10.1467 84.8 9.4C85.0267 8.65333 85.2 8.04 85.32 7.56C85.4533 7.06667 85.5533 6.64667 85.62 6.3C85.6867 5.94 85.7333 5.59333 85.76 5.26L85.8 4.86H87.46C87.1267 6.40667 86.7067 7.94 86.2 9.46C85.7067 10.98 85.2067 12.5 84.7 14.02H83.16L80.54 7.96L78.2 14.02H76.7ZM94.36 14.22C92.8 14.22 91.6 13.9867 90.76 13.52C89.92 13.04 89.5 12.4333 89.5 11.7C89.5 11.0467 89.8133 10.48 90.44 10C91.0667 9.50667 91.9 9.12667 92.94 8.86C93.9933 8.59333 95.1467 8.46 96.4 8.46C96.8667 8.46 97.4067 8.47333 98.02 8.5C98.6333 8.52667 99.24 8.56667 99.84 8.62C99.6667 7.56667 99.18 6.85333 98.38 6.48C97.58 6.09333 96.52 5.9 95.2 5.9C94.5467 5.9 93.8933 5.97333 93.24 6.12C92.6 6.26667 92.02 6.51333 91.5 6.86L90.46 5.94C91.1 5.51333 91.84 5.19333 92.68 4.98C93.52 4.76667 94.4133 4.66 95.36 4.66C96.56 4.66 97.6133 4.79333 98.52 5.06C99.4267 5.32667 100.127 5.78667 100.62 6.44C101.127 7.09333 101.38 7.99333 101.38 9.14V14H99.68V12.6C99.4133 12.9333 99.06 13.2067 98.62 13.42C98.1933 13.6333 97.7267 13.8 97.22 13.92C96.7133 14.0267 96.2067 14.1 95.7 14.14C95.2067 14.1933 94.76 14.22 94.36 14.22ZM91.2 11.62C91.2 11.9533 91.3667 12.22 91.7 12.42C92.0333 12.62 92.4533 12.7667 92.96 12.86C93.48 12.9533 94.02 13 94.58 13C95.54 13 96.4 12.8867 97.16 12.66C97.9333 12.42 98.56 12.0667 99.04 11.6C99.52 11.1333 99.8 10.5533 99.88 9.86C99.36 9.80667 98.7933 9.76 98.18 9.72C97.5667 9.68 97.0333 9.66 96.58 9.66C95.62 9.66 94.7267 9.73333 93.9 9.88C93.0867 10.0133 92.4333 10.2267 91.94 10.52C91.4467 10.8133 91.2 11.18 91.2 11.62ZM106.36 4.86H108.06L108 6.6C108.28 6.18667 108.68 5.83333 109.2 5.54C109.733 5.24667 110.313 5.02667 110.94 4.88C111.58 4.72 112.213 4.64 112.84 4.64C113.56 4.64 114.24 4.72667 114.88 4.9C115.52 5.06 116.08 5.30667 116.56 5.64L115.84 6.9L115.74 7.08L115.62 7C115.593 6.89333 115.54 6.80667 115.46 6.74C115.393 6.67333 115.273 6.58 115.1 6.46C114.687 6.28667 114.287 6.16 113.9 6.08C113.527 6 113.12 5.96 112.68 5.96C112.173 5.96 111.647 6.02 111.1 6.14C110.567 6.26 110.06 6.45333 109.58 6.72C109.113 6.97333 108.733 7.30667 108.44 7.72C108.16 8.12 108.02 8.60667 108.02 9.18V14.02H106.36V4.86ZM125.12 14.2C124.4 14.2 123.693 14.1 123 13.9C122.307 13.7 121.673 13.4 121.1 13C120.54 12.6 120.087 12.1 119.74 11.5C119.407 10.9 119.24 10.2 119.24 9.4C119.24 8.54667 119.413 7.82 119.76 7.22C120.12 6.60667 120.587 6.11333 121.16 5.74C121.747 5.35333 122.393 5.07333 123.1 4.9C123.807 4.71333 124.52 4.62 125.24 4.62C126.347 4.62 127.28 4.78667 128.04 5.12C128.8 5.44 129.327 5.84 129.62 6.32V0.7H131.42V0.839999C131.34 0.92 131.287 1.00667 131.26 1.1C131.247 1.19333 131.24 1.35333 131.24 1.58V12.58C131.24 12.82 131.253 13.06 131.28 13.3C131.307 13.5267 131.38 13.76 131.5 14H129.78C129.66 13.76 129.587 13.5267 129.56 13.3C129.547 13.06 129.54 12.82 129.54 12.58C129.167 13.0733 128.6 13.4667 127.84 13.76C127.08 14.0533 126.173 14.2 125.12 14.2ZM125.44 12.84C126.84 12.84 127.873 12.5467 128.54 11.96C129.22 11.3733 129.56 10.5133 129.56 9.38C129.56 8.26 129.18 7.40667 128.42 6.82C127.673 6.22 126.62 5.92 125.26 5.92C124.433 5.92 123.687 6.04667 123.02 6.3C122.367 6.54 121.847 6.9 121.46 7.38C121.073 7.86 120.88 8.46667 120.88 9.2C120.88 10 121.073 10.6733 121.46 11.22C121.847 11.7533 122.38 12.16 123.06 12.44C123.753 12.7067 124.547 12.84 125.44 12.84ZM140.56 14.2C139.28 14.2 138.193 14.08 137.3 13.84C136.407 13.5867 135.573 13.2 134.8 12.68L135.84 11.38L135.98 11.22L136.08 11.32C136.093 11.4267 136.127 11.52 136.18 11.6C136.247 11.68 136.367 11.78 136.54 11.9C136.993 12.2067 137.533 12.4467 138.16 12.62C138.8 12.7933 139.62 12.88 140.62 12.88C141.807 12.88 142.76 12.76 143.48 12.52C144.2 12.28 144.56 11.9467 144.56 11.52C144.56 11.12 144.26 10.8133 143.66 10.6C143.073 10.3867 142.067 10.1467 140.64 9.88C138.947 9.57333 137.66 9.21333 136.78 8.8C135.913 8.38667 135.48 7.79333 135.48 7.02C135.48 6.32667 135.9 5.76 136.74 5.32C137.58 4.86667 138.84 4.64 140.52 4.64C141.48 4.64 142.28 4.7 142.92 4.82C143.56 4.92667 144.113 5.09333 144.58 5.32C145.06 5.54667 145.527 5.82 145.98 6.14L144.88 7.14L144.74 7.28L144.64 7.18C144.64 7.06 144.607 6.97333 144.54 6.92C144.473 6.85333 144.353 6.76 144.18 6.64C143.727 6.4 143.193 6.22 142.58 6.1C141.967 5.96667 141.3 5.9 140.58 5.9C139.54 5.9 138.707 5.99333 138.08 6.18C137.453 6.35333 137.14 6.60667 137.14 6.94C137.14 7.31333 137.48 7.62 138.16 7.86C138.84 8.08667 139.96 8.34 141.52 8.62C143.227 8.94 144.433 9.31333 145.14 9.74C145.86 10.1533 146.22 10.7067 146.22 11.4C146.22 12.2267 145.747 12.9 144.8 13.42C143.867 13.94 142.453 14.2 140.56 14.2ZM150.38 14V12.7H154.7V2H150.56V0.7H156.34V12.7H160.64V14H150.38ZM169.36 14.22C167.8 14.22 166.6 13.9867 165.76 13.52C164.92 13.04 164.5 12.4333 164.5 11.7C164.5 11.0467 164.813 10.48 165.44 10C166.067 9.50667 166.9 9.12667 167.94 8.86C168.993 8.59333 170.147 8.46 171.4 8.46C171.867 8.46 172.407 8.47333 173.02 8.5C173.633 8.52667 174.24 8.56667 174.84 8.62C174.667 7.56667 174.18 6.85333 173.38 6.48C172.58 6.09333 171.52 5.9 170.2 5.9C169.547 5.9 168.893 5.97333 168.24 6.12C167.6 6.26667 167.02 6.51333 166.5 6.86L165.46 5.94C166.1 5.51333 166.84 5.19333 167.68 4.98C168.52 4.76667 169.413 4.66 170.36 4.66C171.56 4.66 172.613 4.79333 173.52 5.06C174.427 5.32667 175.127 5.78667 175.62 6.44C176.127 7.09333 176.38 7.99333 176.38 9.14V14H174.68V12.6C174.413 12.9333 174.06 13.2067 173.62 13.42C173.193 13.6333 172.727 13.8 172.22 13.92C171.713 14.0267 171.207 14.1 170.7 14.14C170.207 14.1933 169.76 14.22 169.36 14.22ZM166.2 11.62C166.2 11.9533 166.367 12.22 166.7 12.42C167.033 12.62 167.453 12.7667 167.96 12.86C168.48 12.9533 169.02 13 169.58 13C170.54 13 171.4 12.8867 172.16 12.66C172.933 12.42 173.56 12.0667 174.04 11.6C174.52 11.1333 174.8 10.5533 174.88 9.86C174.36 9.80667 173.793 9.76 173.18 9.72C172.567 9.68 172.033 9.66 171.58 9.66C170.62 9.66 169.727 9.73333 168.9 9.88C168.087 10.0133 167.433 10.2267 166.94 10.52C166.447 10.8133 166.2 11.18 166.2 11.62ZM185.56 14.2C184.28 14.2 183.193 14.08 182.3 13.84C181.407 13.5867 180.573 13.2 179.8 12.68L180.84 11.38L180.98 11.22L181.08 11.32C181.093 11.4267 181.127 11.52 181.18 11.6C181.247 11.68 181.367 11.78 181.54 11.9C181.993 12.2067 182.533 12.4467 183.16 12.62C183.8 12.7933 184.62 12.88 185.62 12.88C186.807 12.88 187.76 12.76 188.48 12.52C189.2 12.28 189.56 11.9467 189.56 11.52C189.56 11.12 189.26 10.8133 188.66 10.6C188.073 10.3867 187.067 10.1467 185.64 9.88C183.947 9.57333 182.66 9.21333 181.78 8.8C180.913 8.38667 180.48 7.79333 180.48 7.02C180.48 6.32667 180.9 5.76 181.74 5.32C182.58 4.86667 183.84 4.64 185.52 4.64C186.48 4.64 187.28 4.7 187.92 4.82C188.56 4.92667 189.113 5.09333 189.58 5.32C190.06 5.54667 190.527 5.82 190.98 6.14L189.88 7.14L189.74 7.28L189.64 7.18C189.64 7.06 189.607 6.97333 189.54 6.92C189.473 6.85333 189.353 6.76 189.18 6.64C188.727 6.4 188.193 6.22 187.58 6.1C186.967 5.96667 186.3 5.9 185.58 5.9C184.54 5.9 183.707 5.99333 183.08 6.18C182.453 6.35333 182.14 6.60667 182.14 6.94C182.14 7.31333 182.48 7.62 183.16 7.86C183.84 8.08667 184.96 8.34 186.52 8.62C188.227 8.94 189.433 9.31333 190.14 9.74C190.86 10.1533 191.22 10.7067 191.22 11.4C191.22 12.2267 190.747 12.9 189.8 13.42C188.867 13.94 187.453 14.2 185.56 14.2ZM195 0.7H196.8V0.839999C196.72 0.92 196.667 1.00667 196.64 1.1C196.627 1.19333 196.62 1.35333 196.62 1.58V6.58C197.167 5.95333 197.887 5.47333 198.78 5.14C199.673 4.80667 200.667 4.64 201.76 4.64C203.12 4.64 204.2 4.94667 205 5.56C205.8 6.17333 206.2 7.17333 206.2 8.56V14H204.58V8.6C204.58 7.96 204.433 7.45333 204.14 7.08C203.86 6.70667 203.473 6.44 202.98 6.28C202.487 6.10667 201.933 6.02 201.32 6.02C200.867 6.02 200.373 6.08 199.84 6.2C199.307 6.30667 198.793 6.48 198.3 6.72C197.807 6.94667 197.4 7.23333 197.08 7.58C196.773 7.91333 196.62 8.3 196.62 8.74V14H195V0.7Z" fill="white"/>
</svg>
